PathFileType	4	(X/Y/Z)	C:/Users/beibeiliu/ov580/test_trc/User3\sequence.25_training_dense_left.trc
DataRate	CameraRate	NumFrames	NumMarkers	Units	OrigDataRate	OrigDataStartFrame	OrigNumFrames
120	120	17	19	mm	120	138	274
Frame#	Time	ThumbCMC			ThumbMCP			ThumbIP			ThumbTip			IndexMCP			IndexPIP			IndexTip			MiddleMCP			MiddlePIP			MiddleTip			RingMCP			RingPIP			RingTip			PinkyMCP			PinkyPIP			PinkyTip			BackHand1			BackHand2			BackHand3	
		X0	Y0	Z0	X1	Y1	Z1	X2	Y2	Z2	X3	Y3	Z3	X4	Y4	Z4	X5	Y5	Z5	X6	Y6	Z6	X7	Y7	Z7	X8	Y8	Z8	X9	Y9	Z9	X10	Y10	Z10	X11	Y11	Z11	X12	Y12	Z12	X13	Y13	Z13	X14	Y14	Z14	X15	Y15	Z15	X16	Y16	Z16	X17	Y17	Z17	X18	Y18	Z18	
137	1.14167	-180.652	32.7923	19.6272	-160.121	49.8772	3.90504	-132.293	52.645	-11.6142	-106.926	48.254	-15.0121	-123.231	32.0849	-28.6741	-99.6193	58.0586	-21.7824	-111.541	67.1705	7.51302	-108.216	21.5006	-15.0405	-94.2022	47.5308	3.71392	-126.827	36.7718	24.0937	-101.322	8.00498	3.84465	-91.5217	29.5888	23.1448	-126.558	29.7596	33.3238	-105.052	-10.0531	10.4006	-81.8043	-3.25843	4.21027	-63.979	7.46653	-0.276715	-152.663	-18.4499	12.3577	-173.601	-23.9747	32.5691	-178.762	2.3484	3.32617	
138	1.15	-186.202	34.5418	19.0978	-165.631	49.1398	0.768727	-143.122	59.5305	-23.5548	-123.246	63.6221	-32.9755	-127.232	32.3433	-34.9394	-105.065	56.5138	-24.4138	-125.269	66.4419	1.7792	-110.054	24.0062	-23.1393	-101.648	49.3403	-4.04615	-132.504	39.5762	16.9111	-107.698	11.4258	-6.46532	-97.3812	35.7883	11.6453	-125.226	31.1284	30.0691	-109.761	-4.79655	-0.271165	-87.1895	0.684691	-7.79255	-71.6921	10.7352	-14.8211	-151.893	-19.5995	5.88103	-177.029	-22.8064	30.6247	-182.151	3.22886	-0.0332479	
139	1.15833	-190.144	37.7401	12.4989	-170.775	51.2473	-7.18785	-151.655	59.2674	-28.2692	-136.275	64.8729	-39.9668	-136.758	36.7224	-43.3391	-116.918	61.7778	-32.2281	-130.704	64.8383	-5.17565	-115.792	25.7987	-30.9535	-106.725	49.7419	-15.1433	-137.757	41.9524	9.70926	-111.733	14.9086	-14.855	-102.583	37.1941	5.04484	-131.504	35.7028	21.1566	-116.681	-6.18077	-5.08656	-96.5106	1.45921	-17.0522	-76.075	14.2758	-27.5073	-160.468	-16.6142	4.28748	-175.992	-23.0186	23.4731	-187.47	1.90523	1.40887	
140	1.16667	-192.832	37.3777	11.0749	-177.047	53.2863	-8.56735	-160.759	62.7566	-33.0004	-144.168	69.3475	-50.8013	-144.385	36.3653	-47.9743	-124.042	61.2748	-37.4884	-137.558	61.9211	-8.81531	-129.971	27.0255	-38.6245	-114.106	49.5929	-21.2819	-144.812	38.5277	4.21648	-120.843	15.7666	-25.7333	-109.256	39.8785	-5.676	-134.814	37.3032	13.761	-121.824	-4.92188	-16.7879	-104.79	2.82839	-29.5364	-91.0558	15.0701	-41.0846	-165.087	-15.3134	-1.49757	-182.922	-20.1935	24.685	-194.839	5.00168	-5.11082	
141	1.175	-196.753	42.1898	11.4441	-179.906	54.0364	-10.6095	-169.932	68.0855	-35.6776	-153.952	70.4626	-51.0627	-158.783	39.8061	-53.2838	-134.852	60.8931	-48.4226	-147.782	61.5445	-14.4836	-138.85	25.7747	-46.0678	-123.776	52.496	-27.1352	-148.231	40.6153	-0.585831	-125.648	14.8078	-33.5771	-113.076	34.5006	-16.2208	-133.349	34.1666	8.56726	-129.198	-6.39056	-29.1857	-116.355	0.383471	-39.9699	-99.4012	14.0905	-57.3768	-170.534	-13.6176	-9.08492	-185.154	-19.9595	18.0564	-198.241	7.28111	-2.16052	
142	1.18333	-197.806	47.2765	14.9563	-182.124	57.9302	-10.5681	-171.433	69.8825	-36.4983	-156.508	71.0257	-55.0228	-168.139	40.5137	-57.0354	-139.326	58.1147	-51.9973	-147.762	57.3985	-20.7245	-148.681	29.2675	-52.4337	-126.468	45.7702	-36.7951	-149.917	34.4094	-5.05722	-140.163	13.3906	-41.2997	-118.737	29.6571	-25.496	-141.776	34.1132	1.81986	-140.689	-8.82457	-37.2458	-129.928	0.822445	-50.6867	-111.884	7.89653	-66.2088	-182.102	-11.5744	-10.7665	-191.277	-19.309	16.3203	-204.919	10.2573	-0.444966	
143	1.19167	-194.035	49.174	16.5498	-179.046	58.1056	-8.94936	-170.642	71.1355	-34.1048	-157.974	70.7422	-55.7731	-174.789	43.9957	-56.8535	-144.64	56.6408	-56.3476	-151.646	55.0877	-23.0947	-155.992	26.076	-57.0975	-131.344	39.3122	-41.4168	-153.106	34.9388	-8.22646	-151.645	9.47105	-46.9772	-124.917	22.6619	-31.4909	-137.837	26.2758	-4.31246	-157.501	-11.3606	-39.7132	-145.591	-1.27247	-58.8756	-125.528	7.30911	-76.5294	-195.004	-7.15652	-14.1384	-199.589	-15.7558	16.9836	-208.28	17.0729	2.59334	
144	1.2	-186.088	50.138	21.7437	-175.305	62.0377	-6.95808	-167.362	72.2049	-32.7756	-158.158	73.6055	-57.6693	-181.917	48.5679	-54.9906	-149.37	56.4959	-56.842	-153.869	52.7629	-22.5715	-170.423	27.2735	-58.2652	-139.603	33.4226	-50.747	-155.434	32.2684	-11.4758	-163.127	11.6483	-53.1177	-137.304	14.6785	-44.5764	-145.085	16.7425	-7.94484	-176.621	-5.85739	-43.2617	-163.116	-1.49362	-66.2492	-149.117	2.71649	-81.2618	-206.851	0.512075	-11.2875	-210.737	-8.55849	18.9602	-211.818	28.3854	5.2848	
145	1.20833	-178.973	50.5397	21.5446	-168.947	58.8284	-4.39094	-162.688	69.8068	-32.7122	-157.133	70.5833	-55.7658	-182.97	53.661	-54.5063	-153.607	51.5935	-60.6549	-148.84	46.1023	-28.4641	-181.022	30.0253	-57.1911	-149.464	26.3299	-54.8981	-159.578	25.3073	-12.7777	-181.857	13.9445	-52.3477	-150.641	7.16005	-49.3135	-153.25	9.92534	-14.7437	-195.947	-2.30052	-51.1515	-184.965	-0.305279	-69.1546	-170.056	2.74706	-88.1906	-215.558	6.07739	-7.47682	-219.072	-2.81857	21.6551	-210.713	35.5493	14.1325	
146	1.21667	-173.802	39.4128	24.1857	-164.743	50.7347	-3.13811	-155.277	66.522	-26.9188	-156.064	65.5939	-52.085	-185.603	55.0047	-50.149	-157.076	50.7005	-61.6227	-149.587	36.4336	-27.2775	-187.384	37.2124	-55.1819	-157.658	22.4522	-56.7583	-162.981	17.7901	-17.7543	-190.69	17.1404	-55.2646	-161.349	3.05199	-51.8482	-160.355	0.279318	-22.0054	-209.021	4.43777	-48.4456	-201.471	9.69716	-67.5467	-189.53	12.8488	-90.0241	-221.235	14.0934	-2.81999	-223.548	3.60237	23.8882	-210.681	36.9306	19.181	
147	1.225	-168.986	33.3245	23.1763	-157.903	45.1518	-2.00349	-155.992	55.5466	-28.7706	-151.085	63.4161	-52.3764	-182.649	57.5518	-45.8824	-158.129	43.6626	-62.5287	-148.024	27.4956	-34.8223	-190.065	34.2834	-54.947	-163.437	18.637	-59.0711	-166.064	10.8946	-20.3719	-199.705	17.0817	-52.6824	-171.709	1.62979	-54.8653	-170.469	-5.28611	-20.8936	-219.098	10.2519	-47.2152	-208.973	16.098	-68.4644	-201.333	17.586	-90.8104	-225.462	18.3762	-2.71344	-223.1	6.67087	30.5894	-201.835	38.75	23.4933	
148	1.23333	-164.066	24.0396	24.9266	-155.907	35.039	-4.82342	-150.794	45.3526	-29.9115	-145.159	51.7535	-53.7338	-180.373	49.5461	-45.585	-160.161	31.969	-65.8664	-150.898	11.9408	-37.8771	-188.216	33.4892	-53.8559	-165.48	9.94186	-59.8896	-172.294	1.45148	-21.4224	-202.068	14.2987	-54.3332	-179.05	-5.05695	-57.5036	-174.034	-8.87239	-23.2153	-220.45	12.5728	-44.9836	-212.544	17.739	-67.3869	-205.988	17.8243	-91.2638	-224.184	20.7896	-1.61796	-222.757	9.24943	32.5776	-199.025	35.3515	22.2202	
149	1.24167	-163.491	11.5789	20.9904	-148.873	19.806	-5.81986	-144.05	32.0309	-36.3499	-143.514	36.3018	-60.1193	-174.29	37.8628	-53.1229	-160.501	18.1254	-69.9818	-150.508	-0.118068	-39.2072	-186.606	24.8219	-55.1862	-169.806	-2.75498	-65.0483	-172.534	-5.86266	-20.8267	-199.761	10.8599	-55.1768	-183.832	-16.141	-58.6633	-181.552	-22.0309	-27.4387	-220.673	8.61271	-44.023	-217.28	11.0069	-66.6495	-208.323	9.65844	-91.8954	-223.216	18.9906	-2.14017	-224.479	5.78342	28.2435	-192.05	30.8362	20.9809	
150	1.25	-162.715	5.20772	16.0711	-149.148	10.0599	-12.62	-140.134	16.0783	-36.7521	-137.694	18.6291	-61.8192	-172.137	26.6681	-54.2171	-153.966	3.15925	-72.0063	-153.145	-14.7084	-43.6866	-186.655	10.7627	-61.8075	-172.247	-18.0535	-62.9675	-173.061	-17.8995	-26.6701	-197.006	1.54515	-59.3565	-185.865	-27.033	-58.7798	-183.302	-28.3818	-26.5595	-222.079	3.7459	-48.5531	-214.026	2.95503	-71.0925	-208.356	1.06632	-95.5895	-218.432	15.334	-1.47295	-220.928	5.57646	25.3962	-189.388	26.0936	16.9992	
151	1.25833	-156.518	1.14968	13.8051	-150.029	0.237229	-13.7327	-137.942	5.18693	-43.5235	-140.402	2.35271	-65.9847	-169.006	14.868	-57.6743	-154.862	-11.4917	-73.6431	-153.461	-24.8922	-41.6524	-185.886	-0.329821	-61.9477	-171.373	-30.8685	-64.8545	-174.002	-25.5601	-24.2112	-198.054	-12.2074	-61.5118	-185.8	-38.9884	-56.6601	-183.98	-39.251	-25.9226	-216.773	-5.03855	-50.5801	-214.067	-9.16586	-72.4539	-209.316	-14.2445	-92.9044	-219.281	12.1974	-8.71809	-221.286	4.63007	22.2487	-189.534	20.2717	8.06225	
152	1.26667	-156.137	-4.07653	13.0932	-144.859	-9.19923	-10.7281	-134.511	-8.12446	-40.2742	-134.796	-12.5019	-64.2223	-163.539	0.850666	-61.7315	-149.354	-26.5524	-69.6639	-150.912	-34.2871	-38.5707	-182.494	-13.8093	-64.2614	-167.147	-43.0742	-61.9204	-173.192	-36.1711	-23.308	-196.332	-22.1788	-58.0905	-185.634	-50.6801	-54.6123	-183.922	-44.7598	-18.9782	-219.036	-18.1912	-51.3061	-209.053	-23.317	-71.4176	-204.164	-32.0387	-91.988	-215.692	4.53807	-8.05225	-216.465	4.62823	21.4031	-186.995	15.4103	7.90913	
153	1.275	-156.406	-7.71796	14.1252	-140.196	-13.3121	-11.3525	-135.603	-17.7726	-39.8537	-132.256	-25.6129	-60.6484	-165.037	-10.556	-59.0434	-146.684	-40.806	-63.8171	-152.808	-39.9056	-30.8006	-176.073	-26.2919	-64.3986	-166.061	-55.0704	-56.1003	-168.541	-41.5683	-18.1185	-197.557	-35.0058	-54.6954	-181.891	-63.1585	-45.6675	-178.873	-54.0361	-16.0448	-212.735	-29.0426	-48.075	-208.056	-39.7263	-70.9246	-202.435	-48.703	-88.1121	-215.307	-2.58637	-13.2074	-217.625	0.215845	21.7121	-185.965	12.292	7.02238	
